<mxfile host="app.diagrams.net" agent="Mozilla/5.0 (Windows NT 10.0; Win64; x64) AppleWebKit/537.36 (KHTML, like Gecko) Chrome/140.0.0.0 Safari/537.36" version="28.2.5">
  <diagram name="หน้า-1" id="g1WY-LeKKJIpPG-kmTFl">
    <mxGraphModel dx="3574" dy="1974" grid="1" gridSize="10" guides="1" tooltips="1" connect="1" arrows="1" fold="1" page="1" pageScale="1" pageWidth="1169" pageHeight="1654" math="0" shadow="0">
      <root>
        <mxCell id="0" />
        <mxCell id="1" parent="0" />
        <mxCell id="CkeSAW8G-GJdKuXeejbD-3" value="เริ่มโปรแกรม" style="ellipse;whiteSpace=wrap;html=1;aspect=fixed;" vertex="1" parent="1">
          <mxGeometry x="545" y="270" width="120" height="60" as="geometry" />
        </mxCell>
        <mxCell id="CkeSAW8G-GJdKuXeejbD-4" value="" style="endArrow=classic;html=1;rounded=0;" edge="1" parent="1" source="CkeSAW8G-GJdKuXeejbD-3" target="CkeSAW8G-GJdKuXeejbD-5">
          <mxGeometry width="50" height="50" relative="1" as="geometry">
            <mxPoint x="605" y="330" as="sourcePoint" />
            <mxPoint x="605" y="380" as="targetPoint" />
          </mxGeometry>
        </mxCell>
        <mxCell id="CkeSAW8G-GJdKuXeejbD-5" value="ประกาศตัวแปร Name[50], Age = 0" style="rounded=0;whiteSpace=wrap;html=1;" vertex="1" parent="1">
          <mxGeometry x="520" y="380" width="170" height="60" as="geometry" />
        </mxCell>
        <mxCell id="CkeSAW8G-GJdKuXeejbD-6" value="" style="endArrow=classic;html=1;rounded=0;" edge="1" parent="1" source="CkeSAW8G-GJdKuXeejbD-5" target="CkeSAW8G-GJdKuXeejbD-7">
          <mxGeometry width="50" height="50" relative="1" as="geometry">
            <mxPoint x="605" y="440" as="sourcePoint" />
            <mxPoint x="605" y="490" as="targetPoint" />
          </mxGeometry>
        </mxCell>
        <mxCell id="CkeSAW8G-GJdKuXeejbD-7" value="แสดง &quot;Enter your name: &quot;" style="shape=parallelogram;perimeter=parallelogramPerimeter;whiteSpace=wrap;html=1;fixedSize=1;" vertex="1" parent="1">
          <mxGeometry x="520" y="490" width="170" height="60" as="geometry" />
        </mxCell>
        <mxCell id="CkeSAW8G-GJdKuXeejbD-8" value="" style="endArrow=classic;html=1;rounded=0;" edge="1" parent="1" source="CkeSAW8G-GJdKuXeejbD-7" target="CkeSAW8G-GJdKuXeejbD-9">
          <mxGeometry width="50" height="50" relative="1" as="geometry">
            <mxPoint x="605" y="550" as="sourcePoint" />
            <mxPoint x="605" y="600" as="targetPoint" />
          </mxGeometry>
        </mxCell>
        <mxCell id="CkeSAW8G-GJdKuXeejbD-9" value="รับค่าชื่อด้วย scanf" style="shape=parallelogram;perimeter=parallelogramPerimeter;whiteSpace=wrap;html=1;fixedSize=1;" vertex="1" parent="1">
          <mxGeometry x="520" y="600" width="170" height="60" as="geometry" />
        </mxCell>
        <mxCell id="CkeSAW8G-GJdKuXeejbD-10" value="" style="endArrow=classic;html=1;rounded=0;" edge="1" parent="1" source="CkeSAW8G-GJdKuXeejbD-9" target="CkeSAW8G-GJdKuXeejbD-11">
          <mxGeometry width="50" height="50" relative="1" as="geometry">
            <mxPoint x="605" y="660" as="sourcePoint" />
            <mxPoint x="605" y="710" as="targetPoint" />
          </mxGeometry>
        </mxCell>
        <mxCell id="CkeSAW8G-GJdKuXeejbD-11" value="แสดง &quot;Enter your age: &quot;" style="shape=parallelogram;perimeter=parallelogramPerimeter;whiteSpace=wrap;html=1;fixedSize=1;" vertex="1" parent="1">
          <mxGeometry x="520" y="710" width="170" height="60" as="geometry" />
        </mxCell>
        <mxCell id="CkeSAW8G-GJdKuXeejbD-12" value="" style="endArrow=classic;html=1;rounded=0;" edge="1" parent="1" source="CkeSAW8G-GJdKuXeejbD-11" target="CkeSAW8G-GJdKuXeejbD-13">
          <mxGeometry width="50" height="50" relative="1" as="geometry">
            <mxPoint x="605" y="770" as="sourcePoint" />
            <mxPoint x="605" y="820" as="targetPoint" />
          </mxGeometry>
        </mxCell>
        <mxCell id="CkeSAW8G-GJdKuXeejbD-13" value="รับค่าอายุด้วย scanf" style="shape=parallelogram;perimeter=parallelogramPerimeter;whiteSpace=wrap;html=1;fixedSize=1;" vertex="1" parent="1">
          <mxGeometry x="520" y="820" width="170" height="60" as="geometry" />
        </mxCell>
        <mxCell id="CkeSAW8G-GJdKuXeejbD-14" value="" style="endArrow=classic;html=1;rounded=0;" edge="1" parent="1" source="CkeSAW8G-GJdKuXeejbD-13" target="CkeSAW8G-GJdKuXeejbD-15">
          <mxGeometry width="50" height="50" relative="1" as="geometry">
            <mxPoint x="605" y="880" as="sourcePoint" />
            <mxPoint x="605" y="930" as="targetPoint" />
          </mxGeometry>
        </mxCell>
        <mxCell id="CkeSAW8G-GJdKuXeejbD-15" value="แสดง &quot;- - - - - -&quot;" style="shape=parallelogram;perimeter=parallelogramPerimeter;whiteSpace=wrap;html=1;fixedSize=1;" vertex="1" parent="1">
          <mxGeometry x="520" y="930" width="170" height="60" as="geometry" />
        </mxCell>
        <mxCell id="CkeSAW8G-GJdKuXeejbD-16" value="" style="endArrow=classic;html=1;rounded=0;" edge="1" parent="1" source="CkeSAW8G-GJdKuXeejbD-15" target="CkeSAW8G-GJdKuXeejbD-17">
          <mxGeometry width="50" height="50" relative="1" as="geometry">
            <mxPoint x="605" y="990" as="sourcePoint" />
            <mxPoint x="605" y="1040" as="targetPoint" />
          </mxGeometry>
        </mxCell>
        <mxCell id="CkeSAW8G-GJdKuXeejbD-17" value="แสดง &quot;Hello [Name]&quot;" style="shape=parallelogram;perimeter=parallelogramPerimeter;whiteSpace=wrap;html=1;fixedSize=1;" vertex="1" parent="1">
          <mxGeometry x="520" y="1040" width="170" height="60" as="geometry" />
        </mxCell>
        <mxCell id="CkeSAW8G-GJdKuXeejbD-18" value="" style="endArrow=classic;html=1;rounded=0;" edge="1" parent="1" source="CkeSAW8G-GJdKuXeejbD-17" target="CkeSAW8G-GJdKuXeejbD-19">
          <mxGeometry width="50" height="50" relative="1" as="geometry">
            <mxPoint x="605" y="1100" as="sourcePoint" />
            <mxPoint x="605" y="1150" as="targetPoint" />
          </mxGeometry>
        </mxCell>
        <mxCell id="CkeSAW8G-GJdKuXeejbD-19" value="แสดง &quot;Age = [Age]&quot;" style="shape=parallelogram;perimeter=parallelogramPerimeter;whiteSpace=wrap;html=1;fixedSize=1;" vertex="1" parent="1">
          <mxGeometry x="520" y="1150" width="170" height="60" as="geometry" />
        </mxCell>
        <mxCell id="CkeSAW8G-GJdKuXeejbD-20" value="" style="endArrow=classic;html=1;rounded=0;" edge="1" parent="1" source="CkeSAW8G-GJdKuXeejbD-19" target="CkeSAW8G-GJdKuXeejbD-21">
          <mxGeometry width="50" height="50" relative="1" as="geometry">
            <mxPoint x="605" y="1210" as="sourcePoint" />
            <mxPoint x="605" y="1260" as="targetPoint" />
          </mxGeometry>
        </mxCell>
        <mxCell id="CkeSAW8G-GJdKuXeejbD-21" value="return 0" style="rounded=0;whiteSpace=wrap;html=1;" vertex="1" parent="1">
          <mxGeometry x="520" y="1260" width="170" height="60" as="geometry" />
        </mxCell>
        <mxCell id="CkeSAW8G-GJdKuXeejbD-22" value="" style="endArrow=classic;html=1;rounded=0;" edge="1" parent="1" source="CkeSAW8G-GJdKuXeejbD-21" target="CkeSAW8G-GJdKuXeejbD-23">
          <mxGeometry width="50" height="50" relative="1" as="geometry">
            <mxPoint x="605" y="1320" as="sourcePoint" />
            <mxPoint x="605" y="1370" as="targetPoint" />
          </mxGeometry>
        </mxCell>
        <mxCell id="CkeSAW8G-GJdKuXeejbD-23" value="จบโปรแกรม" style="ellipse;whiteSpace=wrap;html=1;aspect=fixed;" vertex="1" parent="1">
          <mxGeometry x="545" y="1370" width="120" height="60" as="geometry" />
        </mxCell>
      </root>
    </mxGraphModel>
  </diagram>
</mxfile>
